<svg width="159" height="134" viewBox="0 0 159 134" fill="none" xmlns="http://www.w3.org/2000/svg">
<path fill-rule="evenodd" clip-rule="evenodd" d="M36.8453 0.399902L68.1175 57L57.9633 65.4279L17.3784 17.8852C22.8508 11.0423 29.4302 5.12344 36.8453 0.399902Z" fill="#B8B8B8"/>
<path fill-rule="evenodd" clip-rule="evenodd" d="M12.2872 25.0227L52 72L41.8458 80.4279L2.77234 46.6126C4.87112 38.8847 8.10625 31.6245 12.2872 25.0227Z" fill="#B8B8B8"/>
<path fill-rule="evenodd" clip-rule="evenodd" d="M0.963547 79.9141C0.329269 75.8691 0 71.723 0 67.5C0 63.0224 0.370163 58.6313 1.08156 54.3556L38 85.9999L25.5199 97.4279L0.963547 79.9141Z" fill="#B8B8B8"/>
<path fill-rule="evenodd" clip-rule="evenodd" d="M155.026 92.3903C157.605 84.5606 159 76.1932 159 67.5C159 63.9876 158.772 60.5284 158.331 57.1364L63.8426 123.009L79.7245 133.516L155.026 92.3903Z" fill="white"/>
<path fill-rule="evenodd" clip-rule="evenodd" d="M156.749 48.6376L58.8928 119.734L48.2842 112.716L147.3 25.9637C151.553 32.8912 154.774 40.5205 156.749 48.6376Z" fill="white"/>
<path fill-rule="evenodd" clip-rule="evenodd" d="M133.522 9.17398C137.335 12.7076 140.801 16.6105 143.864 20.8259L42.9854 109.21L29.5159 100.299L133.522 9.17398Z" fill="white"/>
</svg>
